<mxfile host="app.diagrams.net" modified="2020-08-13T05:56:02.789Z" agent="5.0 (Windows NT 10.0; Win64; x64) AppleWebKit/537.36 (KHTML, like Gecko) Chrome/84.0.4147.125 Safari/537.36" etag="znCFVO4dfd4dBMZxiDLG" version="13.6.0" type="github">
  <diagram name="Page-1" id="e7e014a7-5840-1c2e-5031-d8a46d1fe8dd">
    <mxGraphModel dx="1422" dy="773" grid="1" gridSize="10" guides="1" tooltips="1" connect="1" arrows="1" fold="1" page="1" pageScale="1" pageWidth="1169" pageHeight="826" background="#ffffff" math="0" shadow="0">
      <root>
        <mxCell id="0" />
        <mxCell id="1" parent="0" />
        <mxCell id="QhZZfci9Yanc7Mhl6CTl-43" value="" style="edgeStyle=orthogonalEdgeStyle;rounded=0;orthogonalLoop=1;jettySize=auto;html=1;" edge="1" parent="1" source="QhZZfci9Yanc7Mhl6CTl-41" target="QhZZfci9Yanc7Mhl6CTl-42">
          <mxGeometry relative="1" as="geometry">
            <Array as="points">
              <mxPoint x="310" y="215" />
              <mxPoint x="310" y="280" />
            </Array>
          </mxGeometry>
        </mxCell>
        <mxCell id="QhZZfci9Yanc7Mhl6CTl-46" value="" style="edgeStyle=orthogonalEdgeStyle;rounded=0;orthogonalLoop=1;jettySize=auto;html=1;exitX=1;exitY=0.5;exitDx=0;exitDy=0;entryX=0;entryY=0.5;entryDx=0;entryDy=0;" edge="1" parent="1" source="QhZZfci9Yanc7Mhl6CTl-41" target="QhZZfci9Yanc7Mhl6CTl-45">
          <mxGeometry relative="1" as="geometry">
            <mxPoint x="400" y="100" as="targetPoint" />
            <Array as="points">
              <mxPoint x="310" y="215" />
              <mxPoint x="310" y="140" />
            </Array>
          </mxGeometry>
        </mxCell>
        <mxCell id="QhZZfci9Yanc7Mhl6CTl-41" value="&lt;pre style=&quot;font-family: &amp;#34;jetbrains mono&amp;#34; ; font-size: 9.8pt&quot;&gt;&lt;span style=&quot;background-color: rgb(255 , 255 , 255)&quot;&gt;PrepareWriteRequests&lt;/span&gt;&lt;/pre&gt;" style="rounded=0;whiteSpace=wrap;html=1;" vertex="1" parent="1">
          <mxGeometry x="110" y="180" width="170" height="70" as="geometry" />
        </mxCell>
        <mxCell id="QhZZfci9Yanc7Mhl6CTl-48" value="" style="edgeStyle=orthogonalEdgeStyle;rounded=0;orthogonalLoop=1;jettySize=auto;html=1;" edge="1" parent="1" source="QhZZfci9Yanc7Mhl6CTl-42" target="QhZZfci9Yanc7Mhl6CTl-47">
          <mxGeometry relative="1" as="geometry" />
        </mxCell>
        <mxCell id="QhZZfci9Yanc7Mhl6CTl-42" value="doWrite" style="whiteSpace=wrap;html=1;rounded=0;" vertex="1" parent="1">
          <mxGeometry x="430" y="250" width="120" height="60" as="geometry" />
        </mxCell>
        <mxCell id="QhZZfci9Yanc7Mhl6CTl-45" value="doOverWirte" style="whiteSpace=wrap;html=1;rounded=0;" vertex="1" parent="1">
          <mxGeometry x="430" y="110" width="120" height="60" as="geometry" />
        </mxCell>
        <mxCell id="QhZZfci9Yanc7Mhl6CTl-50" value="" style="edgeStyle=orthogonalEdgeStyle;rounded=0;orthogonalLoop=1;jettySize=auto;html=1;" edge="1" parent="1" source="QhZZfci9Yanc7Mhl6CTl-47" target="QhZZfci9Yanc7Mhl6CTl-49">
          <mxGeometry relative="1" as="geometry" />
        </mxCell>
        <mxCell id="QhZZfci9Yanc7Mhl6CTl-47" value="build packet" style="whiteSpace=wrap;html=1;rounded=0;" vertex="1" parent="1">
          <mxGeometry x="430" y="360" width="120" height="60" as="geometry" />
        </mxCell>
        <mxCell id="QhZZfci9Yanc7Mhl6CTl-52" value="" style="edgeStyle=orthogonalEdgeStyle;rounded=0;orthogonalLoop=1;jettySize=auto;html=1;" edge="1" parent="1" source="QhZZfci9Yanc7Mhl6CTl-49" target="QhZZfci9Yanc7Mhl6CTl-51">
          <mxGeometry relative="1" as="geometry" />
        </mxCell>
        <mxCell id="QhZZfci9Yanc7Mhl6CTl-49" value="send packet" style="whiteSpace=wrap;html=1;rounded=0;" vertex="1" parent="1">
          <mxGeometry x="430" y="500" width="120" height="60" as="geometry" />
        </mxCell>
        <mxCell id="QhZZfci9Yanc7Mhl6CTl-54" value="" style="edgeStyle=orthogonalEdgeStyle;rounded=0;orthogonalLoop=1;jettySize=auto;html=1;" edge="1" parent="1" source="QhZZfci9Yanc7Mhl6CTl-51" target="QhZZfci9Yanc7Mhl6CTl-53">
          <mxGeometry relative="1" as="geometry" />
        </mxCell>
        <mxCell id="QhZZfci9Yanc7Mhl6CTl-51" value="receiver packet" style="rounded=0;whiteSpace=wrap;html=1;" vertex="1" parent="1">
          <mxGeometry x="430" y="590" width="120" height="60" as="geometry" />
        </mxCell>
        <mxCell id="QhZZfci9Yanc7Mhl6CTl-56" value="" style="edgeStyle=orthogonalEdgeStyle;rounded=0;orthogonalLoop=1;jettySize=auto;html=1;" edge="1" parent="1" source="QhZZfci9Yanc7Mhl6CTl-53" target="QhZZfci9Yanc7Mhl6CTl-55">
          <mxGeometry relative="1" as="geometry" />
        </mxCell>
        <mxCell id="QhZZfci9Yanc7Mhl6CTl-53" value="update&amp;nbsp; cache" style="whiteSpace=wrap;html=1;rounded=0;" vertex="1" parent="1">
          <mxGeometry x="430" y="690" width="120" height="60" as="geometry" />
        </mxCell>
        <mxCell id="QhZZfci9Yanc7Mhl6CTl-55" value="flush meta" style="whiteSpace=wrap;html=1;rounded=0;" vertex="1" parent="1">
          <mxGeometry x="630" y="690" width="120" height="60" as="geometry" />
        </mxCell>
      </root>
    </mxGraphModel>
  </diagram>
</mxfile>
